<svg width="110" height="110" viewBox="0 0 110 110" fill="none" xmlns="http://www.w3.org/2000/svg">
<g clip-path="url(#clip0_2602_13)">
<rect width="110" height="110" fill="#202020"/>
<path d="M94.1839 22.3695C93.8082 21.1058 93.0339 19.9975 91.9766 19.21C90.9193 18.4225 89.6356 17.9981 88.3173 18H21.4617C20.1224 17.999 18.8198 18.438 17.7543 19.2496C16.6888 20.0611 15.9194 21.2002 15.5645 22.4917L6.88672 57.7222H102.892L94.1839 22.3695Z" fill="url(#paint0_linear_2602_13)"/>
<path d="M6 63.8333V85.2222C6 86.843 6.64385 88.3974 7.7899 89.5434C8.93596 90.6895 10.4903 91.3333 12.1111 91.3333H97.6667C99.2874 91.3333 100.842 90.6895 101.988 89.5434C103.134 88.3974 103.778 86.843 103.778 85.2222V63.8333H6ZM91.5556 79.1111H79.3333V73H91.5556V79.1111Z" fill="url(#paint1_linear_2602_13)"/>
<path d="M30.5 57C30.5 53.6513 31.1596 50.3354 32.4411 47.2416C33.7226 44.1478 35.6009 41.3367 37.9688 38.9688C40.3367 36.6009 43.1478 34.7226 46.2416 33.4411C49.3354 32.1596 52.6513 31.5 56 31.5C59.3487 31.5 62.6646 32.1596 65.7584 33.4411C68.8522 34.7226 71.6633 36.6009 74.0312 38.9688C76.3991 41.3367 78.2774 44.1478 79.5589 47.2416C80.8404 50.3354 81.5 53.6513 81.5 57C81.5 63.763 78.8134 70.249 74.0312 75.0312C69.249 79.8134 62.763 82.5 56 82.5C49.237 82.5 42.751 79.8134 37.9688 75.0312C33.1866 70.249 30.5 63.763 30.5 57Z" fill="url(#paint2_linear_2602_13)"/>
<path d="M65.0107 49.197L52.8132 61.4285L46.8802 55.4955C46.6827 55.2979 46.4481 55.1412 46.19 55.0343C45.9318 54.9273 45.6551 54.8723 45.3757 54.8723C45.0963 54.8723 44.8196 54.9273 44.5615 55.0343C44.3034 55.1412 44.0688 55.2979 43.8712 55.4955C43.6737 55.6931 43.5169 55.9276 43.41 56.1858C43.3031 56.4439 43.248 56.7206 43.248 57C43.248 57.2794 43.3031 57.5561 43.41 57.8142C43.5169 58.0724 43.6737 58.3069 43.8712 58.5045L51.3087 65.942C51.5061 66.1399 51.7406 66.2969 51.9988 66.404C52.257 66.5112 52.5337 66.5663 52.8132 66.5663C53.0927 66.5663 53.3695 66.5112 53.6277 66.404C53.8858 66.2969 54.1203 66.1399 54.3177 65.942L68.0197 52.1975C68.4063 51.7962 68.6197 51.2591 68.6141 50.7019C68.6085 50.1447 68.3843 49.612 67.9897 49.2186C67.5952 48.8251 67.0618 48.6024 66.5046 48.5984C65.9474 48.5943 65.411 48.8093 65.0107 49.197Z" fill="url(#paint3_linear_2602_13)"/>
</g>
<defs>
<linearGradient id="paint0_linear_2602_13" x1="54.8895" y1="18" x2="54.8895" y2="57.7222" gradientUnits="userSpaceOnUse">
<stop stop-color="#6C6C6C"/>
<stop offset="1" stop-color="#D2D2D2"/>
</linearGradient>
<linearGradient id="paint1_linear_2602_13" x1="6" y1="77.5833" x2="103.778" y2="77.5833" gradientUnits="userSpaceOnUse">
<stop stop-color="#D2D2D2"/>
<stop offset="1" stop-color="#6C6C6C"/>
</linearGradient>
<linearGradient id="paint2_linear_2602_13" x1="32.3232" y1="41.0625" x2="67.5175" y2="77.6295" gradientUnits="userSpaceOnUse">
<stop stop-color="#52D17C"/>
<stop offset="1" stop-color="#22918B"/>
</linearGradient>
<linearGradient id="paint3_linear_2602_13" x1="48.0107" y1="50.4082" x2="52.0737" y2="70.6425" gradientUnits="userSpaceOnUse">
<stop stop-color="white"/>
<stop offset="1" stop-color="#E3FFD9"/>
</linearGradient>
<clipPath id="clip0_2602_13">
<rect width="110" height="110" fill="white"/>
</clipPath>
</defs>
</svg>
