<svg width="110" height="110" viewBox="0 0 110 110" fill="none" xmlns="http://www.w3.org/2000/svg">
<g clip-path="url(#clip0_2602_13)">
<rect width="110" height="110" fill="#202020"/>
<path d="M94.1839 22.3695C93.8082 21.1058 93.0339 19.9975 91.9766 19.21C90.9193 18.4225 89.6356 17.9981 88.3173 18H21.4617C20.1224 17.999 18.8198 18.438 17.7543 19.2496C16.6888 20.0611 15.9194 21.2002 15.5645 22.4917L6.88672 57.7222H102.892L94.1839 22.3695Z" fill="url(#paint0_linear_2602_13)"/>
<path d="M6 63.8333V85.2222C6 86.843 6.64385 88.3974 7.7899 89.5434C8.93596 90.6895 10.4903 91.3333 12.1111 91.3333H97.6667C99.2874 91.3333 100.842 90.6895 101.988 89.5434C103.134 88.3974 103.778 86.843 103.778 85.2222V63.8333H6ZM91.5556 79.1111H79.3333V73H91.5556V79.1111Z" fill="url(#paint1_linear_2602_13)"/>
<path d="M59.6415 35.2115C59.1803 34.3868 58.5075 33.7 57.6924 33.222C56.8774 32.7439 55.9496 32.4919 55.0047 32.4919C54.0598 32.4919 53.132 32.7439 52.317 33.222C51.5019 33.7 50.8291 34.3868 50.368 35.2115L30.1677 71.345C29.7158 72.1532 29.4831 73.0655 29.4925 73.9914C29.5018 74.9173 29.7531 75.8246 30.2212 76.6235C30.6894 77.4224 31.3582 78.085 32.1614 78.5457C32.9646 79.0064 33.8743 79.2492 34.8002 79.25H75.1922C76.1185 79.25 77.0287 79.0077 77.8325 78.5473C78.6363 78.0869 79.3057 77.4243 79.7744 76.6253C80.243 75.8263 80.4946 74.9187 80.5042 73.9924C80.5138 73.0662 80.281 72.1535 79.829 71.345L59.6415 35.2115Z" fill="url(#paint2_linear_2602_13)"/>
<path d="M58.1875 67.5625C58.1875 68.4079 57.8517 69.2186 57.2539 69.8164C56.6561 70.4142 55.8454 70.75 55 70.75C54.1546 70.75 53.3439 70.4142 52.7461 69.8164C52.1483 69.2186 51.8125 68.4079 51.8125 67.5625C51.8125 66.7171 52.1483 65.9064 52.7461 65.3086C53.3439 64.7108 54.1546 64.375 55 64.375C55.8454 64.375 56.6561 64.7108 57.2539 65.3086C57.8517 65.9064 58.1875 66.7171 58.1875 67.5625ZM52.875 58V47.375C52.875 46.8114 53.0989 46.2709 53.4974 45.8724C53.8959 45.4739 54.4364 45.25 55 45.25C55.5636 45.25 56.1041 45.4739 56.5026 45.8724C56.9011 46.2709 57.125 46.8114 57.125 47.375V58C57.125 58.5636 56.9011 59.1041 56.5026 59.5026C56.1041 59.9011 55.5636 60.125 55 60.125C54.4364 60.125 53.8959 59.9011 53.4974 59.5026C53.0989 59.1041 52.875 58.5636 52.875 58Z" fill="url(#paint3_linear_2602_13)"/>
</g>
<defs>
<linearGradient id="paint0_linear_2602_13" x1="54.8895" y1="18" x2="54.8895" y2="57.7222" gradientUnits="userSpaceOnUse">
<stop stop-color="#6C6C6C"/>
<stop offset="1" stop-color="#D2D2D2"/>
</linearGradient>
<linearGradient id="paint1_linear_2602_13" x1="6" y1="77.5833" x2="103.778" y2="77.5833" gradientUnits="userSpaceOnUse">
<stop stop-color="#D2D2D2"/>
<stop offset="1" stop-color="#6C6C6C"/>
</linearGradient>
<linearGradient id="paint2_linear_2602_13" x1="37.4565" y1="25.1857" x2="66.5817" y2="85.7312" gradientUnits="userSpaceOnUse">
<stop stop-color="#FFCD0F"/>
<stop offset="1" stop-color="#FE8401"/>
</linearGradient>
<linearGradient id="paint3_linear_2602_13" x1="46.5" y1="45.25" x2="56.9805" y2="73.1938" gradientUnits="userSpaceOnUse">
<stop stop-color="#4A4A4A"/>
<stop offset="1" stop-color="#212121"/>
</linearGradient>
<clipPath id="clip0_2602_13">
<rect width="110" height="110" fill="white"/>
</clipPath>
</defs>
</svg>
